<?xml version="1.0" encoding="utf-8"?>
<!-- Generator: Adobe Illustrator 23.0.3, SVG Export Plug-In . SVG Version: 6.00 Build 0)  -->
<svg version="1.1" id="Layer_1" xmlns="http://www.w3.org/2000/svg" xmlns:xlink="http://www.w3.org/1999/xlink" x="0px" y="0px"
	 viewBox="0 0 17 17" style="enable-background:new 0 0 17 17;" xml:space="preserve">
<style type="text/css">
	.st0{enable-background:new    ;}
	.st1{clip-path:url(#SVGID_2_);}
	.st2{clip-path:url(#SVGID_5_);}
	.st3{fill:url(#ellipse9_1_);}
	.st4{clip-path:url(#SVGID_6_);}
	.st5{clip-path:url(#SVGID_8_);}
</style>
<g>
	<g>
		<g class="st0">
			<g>
				<defs>
					<polygon id="SVGID_1_" points="1.1,10.5 -0.1,1.6 15.8,1.6 17,10.5 					"/>
				</defs>
				<clipPath id="SVGID_2_">
					<use xlink:href="#SVGID_1_"  style="overflow:visible;"/>
				</clipPath>
				<g class="st1">
					<g>
						<g>
							<g>
								<path d="M9,10.2L1.1,6.1L8,1.9l7.9,4.1L9,10.2 M7.9,1.6c-0.1,0-0.1,0-0.2,0L0.6,6L0.5,6.1l0.1,0.1l8.3,4.3l0.2,0l0.2,0
									l7.2-4.3c0.1-0.1,0.1-0.1,0-0.2L8.1,1.6C8.1,1.6,8,1.6,7.9,1.6"/>
							</g>
						</g>
					</g>
				</g>
			</g>
		</g>
	</g>
</g>
<g>
	<g>
		<g class="st0">
			<g>
				<defs>
					<polygon id="SVGID_4_" points="1.2,12.6 0.6,8 16.5,8 17.1,12.6 					"/>
				</defs>
				<clipPath id="SVGID_5_">
					<use xlink:href="#SVGID_4_"  style="overflow:visible;"/>
				</clipPath>
				<g class="st2">
					<g>
						<g>
							<g>
								<path d="M16.3,8c-0.1,0-0.1,0-0.2,0l-7,4.2L1,8c0,0-0.1,0-0.2,0C0.7,8,0.7,8,0.6,8c-0.1,0.1-0.1,0.1,0,0.2L9,12.5
									c0.1,0,0.1,0,0.2,0c0.1,0,0.1,0,0.2,0l7.2-4.3c0.1-0.1,0.1-0.1,0-0.2C16.4,8,16.3,8,16.3,8"/>
							</g>
						</g>
					</g>
				</g>
			</g>
		</g>
	</g>
</g>
<radialGradient id="ellipse9_1_" cx="6.985" cy="12.4283" r="0" gradientTransform="matrix(1 0 0 1 0 2)" gradientUnits="userSpaceOnUse">
	<stop  offset="0.3581" style="stop-color:#FF0000"/>
	<stop  offset="0.6186" style="stop-color:#C40400"/>
	<stop  offset="0.8558" style="stop-color:#8C1A01"/>
</radialGradient>
<polygon id="ellipse9" class="st3" points="7,14.4 7,14.4 7,14.4 "/>
<g>
	<g>
		<g class="st0">
			<g>
				<defs>
					<polygon id="SVGID_3_" points="1.2,14.5 0.6,9.9 16.5,9.9 17.1,14.5 					"/>
				</defs>
				<clipPath id="SVGID_6_">
					<use xlink:href="#SVGID_3_"  style="overflow:visible;"/>
				</clipPath>
				<g class="st4">
					<g>
						<g>
							<g>
								<path d="M16.3,9.9c-0.1,0-0.1,0-0.2,0l-7,4.2L1,10c0,0-0.1,0-0.2,0c-0.1,0-0.1,0-0.2,0c-0.1,0.1-0.1,0.1,0,0.2L9,14.5
									c0.1,0,0.1,0,0.2,0c0.1,0,0.1,0,0.2,0l7.2-4.3c0.1-0.1,0.1-0.1,0-0.2C16.4,9.9,16.3,9.9,16.3,9.9"/>
							</g>
						</g>
					</g>
				</g>
			</g>
		</g>
	</g>
</g>
<g>
	<g>
		<g class="st0">
			<g>
				<defs>
					<polygon id="SVGID_7_" points="1.2,16.4 0.6,11.8 16.5,11.8 17.1,16.4 					"/>
				</defs>
				<clipPath id="SVGID_8_">
					<use xlink:href="#SVGID_7_"  style="overflow:visible;"/>
				</clipPath>
				<g class="st5">
					<g>
						<g>
							<g>
								<path d="M16.3,11.8c-0.1,0-0.1,0-0.2,0l-7,4.2L1,11.8c0,0-0.1,0-0.2,0c-0.1,0-0.1,0-0.2,0c-0.1,0.1-0.1,0.1,0,0.2L9,16.4
									c0.1,0,0.1,0,0.2,0c0.1,0,0.1,0,0.2,0l7.2-4.3c0.1-0.1,0.1-0.1,0-0.2C16.4,11.8,16.3,11.8,16.3,11.8"/>
							</g>
						</g>
					</g>
				</g>
			</g>
		</g>
	</g>
</g>
</svg>
